<svg xmlns="http://www.w3.org/2000/svg" viewBox="0 0 381 359" role="img" aria-label="Cordia flower">
  <path d="M 16 181 L 16 182 L 14 184 L 14 185 L 13 186 L 13 188 L 12 189 L 12 195 L 13 196 L 13 199 L 14 200 L 14 201 L 20 207 L 21 207 L 24 209 L 26 209 L 27 210 L 30 210 L 31 211 L 34 211 L 35 212 L 39 212 L 40 213 L 43 213 L 44 214 L 47 214 L 48 215 L 50 215 L 51 216 L 54 216 L 57 218 L 59 218 L 60 219 L 62 219 L 67 222 L 69 222 L 70 223 L 71 223 L 72 224 L 73 224 L 74 225 L 77 226 L 79 228 L 80 228 L 81 229 L 84 230 L 86 232 L 87 232 L 89 234 L 90 234 L 92 236 L 93 236 L 96 239 L 97 239 L 101 243 L 102 243 L 110 251 L 111 251 L 115 255 L 115 256 L 129 270 L 130 270 L 131 271 L 139 271 L 140 270 L 141 270 L 145 266 L 145 265 L 146 264 L 146 262 L 147 261 L 147 259 L 148 258 L 148 255 L 149 254 L 149 250 L 150 249 L 150 240 L 151 239 L 151 232 L 150 231 L 150 222 L 149 221 L 149 216 L 148 215 L 148 212 L 147 211 L 147 209 L 146 208 L 146 206 L 145 205 L 145 203 L 144 202 L 144 200 L 143 199 L 143 198 L 142 197 L 142 196 L 141 195 L 141 194 L 140 193 L 140 192 L 139 191 L 138 188 L 136 186 L 136 185 L 133 182 L 133 181 L 129 177 L 129 176 L 119 166 L 118 166 L 115 163 L 114 163 L 111 160 L 110 160 L 108 158 L 105 157 L 103 155 L 102 155 L 99 153 L 97 153 L 94 151 L 92 151 L 91 150 L 89 150 L 88 149 L 86 149 L 85 148 L 82 148 L 81 147 L 75 147 L 74 146 L 62 146 L 61 147 L 57 147 L 56 148 L 54 148 L 53 149 L 51 149 L 50 150 L 49 150 L 47 152 L 46 152 L 39 159 L 39 160 L 37 162 L 37 163 L 36 164 L 36 165 L 35 166 L 34 169 L 32 171 L 31 171 L 30 172 L 29 172 L 28 173 L 25 174 L 23 176 L 22 176 L 20 178 L 19 178 Z M 22 190 L 27 185 L 28 185 L 29 184 L 30 184 L 32 182 L 34 182 L 36 180 L 37 180 L 42 175 L 42 174 L 43 173 L 43 172 L 44 171 L 45 168 L 47 166 L 47 165 L 52 160 L 53 160 L 58 157 L 61 157 L 62 156 L 73 156 L 74 157 L 79 157 L 80 158 L 83 158 L 84 159 L 87 159 L 90 161 L 92 161 L 93 162 L 94 162 L 95 163 L 96 163 L 97 164 L 98 164 L 99 165 L 102 166 L 104 168 L 105 168 L 107 170 L 108 170 L 113 175 L 114 175 L 123 184 L 123 185 L 126 188 L 126 189 L 130 194 L 130 195 L 131 196 L 131 197 L 132 198 L 132 199 L 135 204 L 135 206 L 136 207 L 136 209 L 137 210 L 137 212 L 138 213 L 138 216 L 139 217 L 139 221 L 140 222 L 140 229 L 141 230 L 141 241 L 140 242 L 140 248 L 139 249 L 139 254 L 138 255 L 138 257 L 135 260 L 133 260 L 127 254 L 127 253 L 115 241 L 114 241 L 108 235 L 107 235 L 103 231 L 102 231 L 100 229 L 99 229 L 97 227 L 96 227 L 93 224 L 92 224 L 90 222 L 87 221 L 85 219 L 84 219 L 83 218 L 82 218 L 81 217 L 80 217 L 79 216 L 78 216 L 77 215 L 76 215 L 71 212 L 69 212 L 66 210 L 64 210 L 61 208 L 59 208 L 58 207 L 56 207 L 55 206 L 52 206 L 51 205 L 49 205 L 48 204 L 45 204 L 44 203 L 40 203 L 39 202 L 36 202 L 35 201 L 31 201 L 30 200 L 28 200 L 27 199 L 26 199 L 23 196 L 23 195 L 22 194 Z M 221 18 L 219 18 L 218 17 L 217 17 L 216 16 L 214 16 L 213 15 L 210 15 L 209 14 L 206 14 L 205 13 L 199 13 L 198 12 L 181 12 L 180 13 L 175 13 L 174 14 L 171 14 L 170 15 L 168 15 L 167 16 L 165 16 L 164 17 L 162 17 L 161 18 L 159 18 L 158 19 L 157 19 L 156 20 L 155 20 L 154 21 L 153 21 L 152 22 L 149 23 L 147 25 L 146 25 L 144 27 L 143 27 L 141 29 L 140 29 L 137 32 L 136 32 L 120 48 L 118 48 L 117 49 L 115 49 L 114 50 L 112 50 L 111 51 L 108 52 L 106 54 L 105 54 L 99 60 L 99 61 L 97 64 L 97 73 L 98 74 L 98 75 L 103 80 L 104 80 L 109 83 L 111 83 L 112 84 L 113 84 L 114 85 L 115 85 L 116 86 L 119 87 L 121 89 L 124 90 L 127 93 L 128 93 L 144 109 L 144 110 L 147 113 L 147 114 L 149 116 L 149 117 L 153 122 L 153 123 L 154 124 L 154 125 L 155 126 L 155 127 L 156 128 L 156 129 L 157 130 L 157 131 L 158 132 L 158 133 L 159 134 L 159 135 L 162 140 L 162 142 L 163 143 L 163 145 L 164 146 L 164 148 L 165 149 L 165 151 L 166 152 L 166 154 L 167 155 L 167 158 L 168 159 L 168 163 L 169 164 L 169 165 L 172 168 L 175 168 L 178 165 L 178 158 L 177 157 L 177 155 L 176 154 L 176 152 L 175 151 L 175 148 L 174 147 L 174 145 L 173 144 L 173 142 L 171 139 L 171 137 L 169 134 L 169 132 L 168 131 L 168 130 L 167 129 L 167 128 L 166 127 L 166 126 L 165 125 L 165 124 L 164 123 L 163 120 L 161 118 L 160 115 L 158 113 L 158 112 L 156 110 L 156 109 L 154 107 L 154 106 L 142 92 L 141 92 L 135 86 L 134 86 L 131 83 L 130 83 L 125 79 L 124 79 L 123 78 L 122 78 L 121 77 L 120 77 L 115 74 L 113 74 L 112 73 L 109 72 L 107 70 L 107 66 L 111 62 L 112 62 L 113 61 L 114 61 L 119 58 L 121 58 L 122 57 L 125 57 L 126 56 L 127 56 L 132 51 L 132 50 L 141 41 L 142 41 L 146 37 L 147 37 L 150 34 L 153 33 L 155 31 L 156 31 L 157 30 L 158 30 L 163 27 L 165 27 L 166 26 L 168 26 L 169 25 L 171 25 L 172 24 L 175 24 L 176 23 L 180 23 L 181 22 L 199 22 L 200 23 L 205 23 L 206 24 L 209 24 L 210 25 L 212 25 L 213 26 L 215 26 L 216 27 L 217 27 L 218 28 L 219 28 L 220 29 L 221 29 L 222 30 L 223 30 L 224 31 L 227 32 L 229 34 L 230 34 L 232 36 L 233 36 L 237 40 L 238 40 L 254 56 L 255 56 L 256 57 L 258 57 L 259 58 L 261 58 L 262 59 L 264 59 L 265 60 L 266 60 L 267 61 L 270 62 L 275 67 L 275 69 L 271 73 L 270 73 L 269 74 L 267 74 L 266 75 L 263 76 L 261 78 L 260 78 L 259 79 L 256 80 L 254 82 L 253 82 L 251 84 L 250 84 L 247 87 L 246 87 L 230 103 L 230 104 L 226 108 L 226 109 L 224 111 L 224 112 L 220 117 L 219 120 L 217 122 L 217 123 L 216 124 L 216 125 L 215 126 L 215 127 L 214 128 L 213 131 L 211 133 L 211 134 L 210 135 L 210 137 L 209 138 L 209 139 L 206 144 L 206 146 L 204 149 L 204 151 L 203 152 L 203 153 L 202 154 L 202 156 L 200 159 L 200 161 L 199 162 L 199 164 L 198 165 L 198 167 L 197 168 L 197 170 L 196 171 L 196 173 L 195 174 L 195 176 L 194 177 L 194 180 L 193 181 L 193 183 L 192 184 L 192 187 L 191 188 L 191 190 L 190 191 L 190 193 L 189 194 L 189 197 L 188 198 L 188 200 L 187 201 L 187 204 L 186 205 L 186 208 L 185 209 L 185 211 L 184 212 L 184 215 L 183 216 L 183 218 L 182 219 L 182 222 L 181 223 L 181 225 L 180 226 L 180 228 L 179 229 L 179 231 L 178 232 L 178 234 L 177 235 L 177 237 L 176 238 L 176 240 L 175 241 L 175 243 L 174 244 L 174 246 L 173 247 L 173 249 L 171 252 L 171 254 L 169 257 L 169 259 L 166 264 L 166 266 L 165 267 L 165 268 L 164 269 L 164 270 L 163 271 L 163 272 L 162 273 L 162 274 L 161 275 L 160 278 L 158 280 L 158 281 L 157 282 L 156 285 L 154 287 L 154 288 L 152 290 L 152 291 L 150 293 L 150 294 L 147 297 L 147 298 L 143 302 L 143 303 L 131 315 L 130 315 L 126 319 L 125 319 L 122 322 L 121 322 L 119 324 L 118 324 L 117 325 L 116 325 L 115 326 L 114 326 L 113 327 L 112 327 L 111 328 L 110 328 L 105 331 L 103 331 L 100 333 L 97 333 L 96 334 L 93 334 L 92 335 L 87 335 L 86 336 L 85 336 L 83 338 L 83 339 L 82 340 L 83 343 L 85 345 L 94 345 L 95 344 L 98 344 L 99 343 L 102 343 L 103 342 L 105 342 L 108 340 L 110 340 L 111 339 L 112 339 L 113 338 L 114 338 L 115 337 L 116 337 L 117 336 L 118 336 L 119 335 L 122 334 L 124 332 L 125 332 L 127 330 L 128 330 L 130 328 L 131 328 L 135 324 L 136 324 L 154 306 L 156 306 L 157 305 L 159 305 L 160 304 L 162 304 L 167 301 L 169 301 L 170 300 L 171 300 L 172 299 L 175 298 L 177 296 L 178 296 L 179 295 L 182 294 L 184 292 L 187 291 L 189 289 L 190 289 L 193 286 L 194 286 L 197 283 L 198 283 L 202 279 L 203 279 L 209 273 L 210 273 L 216 267 L 216 266 L 223 259 L 223 258 L 226 255 L 226 254 L 230 250 L 250 250 L 251 249 L 258 249 L 259 248 L 264 248 L 265 247 L 269 247 L 270 246 L 273 246 L 274 245 L 277 245 L 278 244 L 281 244 L 282 243 L 284 243 L 285 242 L 288 242 L 289 241 L 291 241 L 292 240 L 294 240 L 295 239 L 297 239 L 300 237 L 302 237 L 303 236 L 305 236 L 308 234 L 310 234 L 315 231 L 317 231 L 318 230 L 319 230 L 320 229 L 321 229 L 322 228 L 323 228 L 324 227 L 325 227 L 326 226 L 327 226 L 328 225 L 329 225 L 330 224 L 331 224 L 332 223 L 333 223 L 334 222 L 335 222 L 336 221 L 339 220 L 341 218 L 344 217 L 346 215 L 349 214 L 351 212 L 352 212 L 354 210 L 355 210 L 364 201 L 364 200 L 367 195 L 367 192 L 368 191 L 368 181 L 367 180 L 367 178 L 366 177 L 366 175 L 365 174 L 365 173 L 363 171 L 363 170 L 358 165 L 357 165 L 355 163 L 354 163 L 349 160 L 347 160 L 346 159 L 344 159 L 343 158 L 340 158 L 339 157 L 335 157 L 334 156 L 330 156 L 329 155 L 327 155 L 326 154 L 325 154 L 322 151 L 322 150 L 321 149 L 321 148 L 320 147 L 319 144 L 311 136 L 310 136 L 309 135 L 307 135 L 306 134 L 295 134 L 294 135 L 292 135 L 291 136 L 290 136 L 289 137 L 288 137 L 287 138 L 284 139 L 282 141 L 281 141 L 279 143 L 278 143 L 273 148 L 272 148 L 263 157 L 263 158 L 257 164 L 257 165 L 255 167 L 255 168 L 253 170 L 253 171 L 249 176 L 249 177 L 248 178 L 248 179 L 247 180 L 247 181 L 246 182 L 246 183 L 245 184 L 245 185 L 242 190 L 242 192 L 241 193 L 241 195 L 240 196 L 240 198 L 239 199 L 239 201 L 238 202 L 238 205 L 237 206 L 237 208 L 236 209 L 236 212 L 235 213 L 235 215 L 234 216 L 234 218 L 233 219 L 233 221 L 231 224 L 231 226 L 228 231 L 228 233 L 226 235 L 226 236 L 225 237 L 225 238 L 224 239 L 223 242 L 221 244 L 221 245 L 218 248 L 218 249 L 214 253 L 214 254 L 197 271 L 196 271 L 192 275 L 191 275 L 188 278 L 187 278 L 185 280 L 184 280 L 179 284 L 176 285 L 174 287 L 173 287 L 170 289 L 168 289 L 166 287 L 166 286 L 167 285 L 168 282 L 170 280 L 170 279 L 171 278 L 171 277 L 174 272 L 174 270 L 177 265 L 177 263 L 180 258 L 180 256 L 181 255 L 181 253 L 183 250 L 183 248 L 184 247 L 184 245 L 185 244 L 185 242 L 186 241 L 186 239 L 187 238 L 187 236 L 188 235 L 188 233 L 189 232 L 189 230 L 190 229 L 190 226 L 191 225 L 191 223 L 192 222 L 192 219 L 193 218 L 193 216 L 194 215 L 194 213 L 195 212 L 195 209 L 196 208 L 196 205 L 197 204 L 197 202 L 198 201 L 198 199 L 199 198 L 199 195 L 200 194 L 200 192 L 201 191 L 201 188 L 202 187 L 202 185 L 203 184 L 203 182 L 204 181 L 204 178 L 205 177 L 205 175 L 206 174 L 206 172 L 207 171 L 207 169 L 208 168 L 208 166 L 210 163 L 210 161 L 211 160 L 211 158 L 213 155 L 213 153 L 214 152 L 214 150 L 215 149 L 215 148 L 216 147 L 216 146 L 219 141 L 219 139 L 220 138 L 221 135 L 223 133 L 223 132 L 224 131 L 225 128 L 227 126 L 228 123 L 230 121 L 230 120 L 232 118 L 232 117 L 235 114 L 235 113 L 238 110 L 238 109 L 252 95 L 253 95 L 256 92 L 257 92 L 262 88 L 263 88 L 264 87 L 267 86 L 269 84 L 271 84 L 272 83 L 273 83 L 274 82 L 277 81 L 279 79 L 280 79 L 282 77 L 282 76 L 284 73 L 284 63 L 283 62 L 282 59 L 279 56 L 278 56 L 276 54 L 275 54 L 273 52 L 272 52 L 269 50 L 267 50 L 266 49 L 264 49 L 263 48 L 261 48 L 260 47 L 259 47 L 253 41 L 253 40 L 250 37 L 249 37 L 243 31 L 242 31 L 239 28 L 238 28 L 233 24 L 232 24 L 231 23 L 230 23 L 229 22 L 228 22 L 227 21 L 226 21 Z M 356 177 L 356 178 L 358 181 L 358 184 L 359 185 L 359 187 L 358 188 L 358 191 L 357 192 L 356 195 L 349 202 L 348 202 L 343 206 L 340 207 L 338 209 L 337 209 L 336 210 L 335 210 L 334 211 L 331 212 L 329 214 L 328 214 L 327 215 L 326 215 L 325 216 L 324 216 L 323 217 L 322 217 L 317 220 L 315 220 L 314 221 L 313 221 L 312 222 L 311 222 L 306 225 L 304 225 L 301 227 L 299 227 L 298 228 L 296 228 L 293 230 L 291 230 L 290 231 L 288 231 L 287 232 L 284 232 L 283 233 L 281 233 L 280 234 L 277 234 L 276 235 L 273 235 L 272 236 L 268 236 L 267 237 L 263 237 L 262 238 L 258 238 L 257 239 L 250 239 L 249 240 L 238 240 L 236 238 L 236 237 L 237 236 L 237 235 L 240 230 L 240 228 L 242 225 L 242 223 L 243 222 L 243 220 L 244 219 L 244 216 L 245 215 L 245 213 L 246 212 L 246 209 L 247 208 L 247 205 L 248 204 L 248 202 L 249 201 L 249 199 L 250 198 L 250 196 L 252 193 L 252 191 L 253 190 L 253 189 L 254 188 L 254 187 L 255 186 L 256 183 L 258 181 L 258 180 L 260 178 L 260 177 L 262 175 L 262 174 L 265 171 L 265 170 L 270 165 L 270 164 L 283 152 L 284 152 L 287 149 L 288 149 L 290 147 L 291 147 L 294 145 L 296 145 L 297 144 L 304 144 L 305 145 L 306 145 L 311 150 L 311 151 L 312 152 L 312 153 L 313 154 L 314 157 L 316 159 L 316 160 L 317 161 L 318 161 L 320 163 L 321 163 L 324 165 L 328 165 L 329 166 L 333 166 L 334 167 L 338 167 L 339 168 L 342 168 L 343 169 L 345 169 L 346 170 L 347 170 L 348 171 L 351 172 Z" fill="#FFFFFF" fill-rule="evenodd" clip-rule="evenodd"/>
  <path d="M 117 202 L 115 204 L 115 206 L 116 207 L 116 208 L 117 209 L 117 210 L 118 211 L 118 212 L 120 215 L 120 217 L 121 218 L 121 222 L 122 223 L 122 230 L 124 232 L 127 232 L 129 230 L 129 222 L 128 221 L 128 218 L 127 217 L 127 215 L 126 214 L 126 212 L 124 209 L 124 207 L 123 206 L 123 205 L 120 202 Z M 200 98 L 196 98 L 195 99 L 195 100 L 193 102 L 193 103 L 192 104 L 192 105 L 191 106 L 191 107 L 189 110 L 189 112 L 188 113 L 188 116 L 187 117 L 187 122 L 186 123 L 186 135 L 187 136 L 191 136 L 193 134 L 193 124 L 194 123 L 194 118 L 195 117 L 195 115 L 196 114 L 196 112 L 197 111 L 197 110 L 198 109 L 198 108 L 199 107 L 199 106 L 201 103 L 201 99 Z" fill="#EFBDA0" fill-rule="evenodd" clip-rule="evenodd"/>
</svg>